<svg width="24" height="24" viewBox="0 0 24 24" fill="none" xmlns="http://www.w3.org/2000/svg">
<rect width="24" height="24" rx="4" fill="#25AAE1"/>
<path d="M6 8H7.33333H18" stroke="white" stroke-width="1.4" stroke-linecap="round" stroke-linejoin="round"/>
<path d="M9.33325 7.99992V6.66659C9.33325 6.31296 9.47373 5.97382 9.72378 5.72378C9.97382 5.47373 10.313 5.33325 10.6666 5.33325H13.3333C13.6869 5.33325 14.026 5.47373 14.2761 5.72378C14.5261 5.97382 14.6666 6.31296 14.6666 6.66659V7.99992M16.6666 7.99992V17.3333C16.6666 17.6869 16.5261 18.026 16.2761 18.2761C16.026 18.5261 15.6869 18.6666 15.3333 18.6666H8.66659C8.31296 18.6666 7.97382 18.5261 7.72378 18.2761C7.47373 18.026 7.33325 17.6869 7.33325 17.3333V7.99992H16.6666Z" stroke="white" stroke-width="1.4" stroke-linecap="round" stroke-linejoin="round"/>
<path d="M13.3333 11.3333V15.3333" stroke="white" stroke-width="1.4" stroke-linecap="round" stroke-linejoin="round"/>
<path d="M10.6667 11.3333V15.3333" stroke="white" stroke-width="1.4" stroke-linecap="round" stroke-linejoin="round"/>
</svg>
