<svg width="240" height="126" viewBox="0 0 240 126" fill="none" xmlns="http://www.w3.org/2000/svg">
<path d="M7.2 120C3.22355 120 -0.0225103 116.774 0.215934 112.804C1.01477 99.5063 4.02357 86.4168 9.13446 74.078C15.165 59.5189 24.0042 46.2902 35.1472 35.1472C46.2902 24.0041 59.5189 15.165 74.078 9.13445C88.6371 3.10389 104.241 -2.06649e-06 120 0C135.759 2.0665e-06 151.363 3.1039 165.922 9.13446C180.481 15.165 193.71 24.0042 204.853 35.1472C215.996 46.2902 224.835 59.5189 230.866 74.078C235.976 86.4168 238.985 99.5063 239.784 112.804C240.023 116.774 236.776 120 232.8 120V120C228.824 120 225.626 116.773 225.355 112.805C224.576 101.4 221.949 90.18 217.562 79.5886C212.255 66.7767 204.476 55.1354 194.67 45.3295C184.865 35.5237 173.223 27.7452 160.411 22.4383C147.599 17.1314 133.868 14.4 120 14.4C106.132 14.4 92.4006 17.1314 79.5886 22.4383C66.7767 27.7452 55.1354 35.5237 45.3295 45.3295C35.5237 55.1354 27.7452 66.7766 22.4383 79.5886C18.0513 90.1799 15.4242 101.4 14.6454 112.805C14.3744 116.773 11.1765 120 7.2 120V120Z" fill="#EBEEFD"/>
<path d="M7.2 120C3.22355 120 -0.0225182 116.773 0.215798 112.803C1.96902 83.6025 14.345 55.9493 35.1472 35.1472C57.6515 12.6428 88.174 3.41443e-06 120 0C151.826 -3.41443e-06 182.348 12.6428 204.853 35.1472C225.655 55.9493 238.031 83.6025 239.784 112.803C240.023 116.773 236.776 120 232.8 120V120C228.824 120 225.626 116.772 225.355 112.805C223.623 87.4263 212.772 63.4306 194.67 45.3295C174.867 25.5257 148.007 14.4 120 14.4C91.9931 14.4 65.1334 25.5257 45.3295 45.3295C27.2285 63.4306 16.3774 87.4264 14.6452 112.805C14.3744 116.772 11.1765 120 7.2 120V120Z" fill="url(#paint0_radial_494_3536)"/>
<circle cx="202" cy="71" r="4" fill="#DEE4FF"/>
<circle cx="170" cy="37" r="4" fill="#DEE4FF"/>
<circle cx="120" cy="23" r="4" fill="#DEE4FF"/>
<circle cx="73" cy="37" r="4" fill="#DEE4FF"/>
<circle cx="38" cy="71" r="4" fill="#DEE4FF"/>
<circle cx="24" cy="113" r="4" fill="#DEE4FF"/>
<circle cx="216" cy="113" r="4" fill="#DEE4FF"/>
<defs>
<radialGradient id="paint0_radial_494_3536" cx="0" cy="0" r="1" gradientUnits="userSpaceOnUse" gradientTransform="translate(231.367 107.914) rotate(178.877) scale(220.186)">
<stop stop-color="#0C6AF7"/>
<stop offset="0.396907" stop-color="#3ECE80"/>
<stop offset="0.622936" stop-color="#F9CF4A"/>
<stop offset="1" stop-color="#E76262"/>
</radialGradient>
</defs>
</svg>
