<svg width="240" height="131" viewBox="0 0 240 131" fill="none" xmlns="http://www.w3.org/2000/svg"><path d="M7.2 120.5C3.22355 120.5 -0.0225103 117.274 0.215934 113.304C1.01477 100.006 4.02357 86.9168 9.13446 74.578C15.165 60.0189 24.0042 46.7902 35.1472 35.6472C46.2902 24.5041 59.5189 15.665 74.078 9.63445C88.6371 3.60389 104.241 0.499998 120 0.5C135.759 0.500002 151.363 3.6039 165.922 9.63446C180.481 15.665 193.71 24.5042 204.853 35.6472C215.996 46.7902 224.835 60.0189 230.866 74.578C235.976 86.9168 238.985 100.006 239.784 113.304C240.023 117.274 236.776 120.5 232.8 120.5C228.824 120.5 225.626 117.273 225.355 113.305C224.576 101.9 221.949 90.68 217.562 80.0886C212.255 67.2767 204.476 55.6354 194.67 45.8295C184.865 36.0237 173.223 28.2452 160.411 22.9383C147.599 17.6314 133.868 14.9 120 14.9C106.132 14.9 92.4006 17.6314 79.5886 22.9383C66.7767 28.2452 55.1354 36.0237 45.3295 45.8295C35.5237 55.6354 27.7452 67.2766 22.4383 80.0886C18.0513 90.6799 15.4242 101.9 14.6454 113.305C14.3744 117.273 11.1765 120.5 7.2 120.5Z" fill="#EBEEFD"/><path d="M7.2 120.5C3.22355 120.5 -0.0225182 117.273 0.215798 113.303C1.96902 84.1025 14.345 56.4493 35.1472 35.6472C57.6515 13.1428 88.174 0.500003 120 0.5C151.826 0.499997 182.348 13.1428 204.853 35.6472C225.655 56.4493 238.031 84.1025 239.784 113.303C240.023 117.273 236.776 120.5 232.8 120.5C228.824 120.5 225.626 117.272 225.355 113.305C223.623 87.9263 212.772 63.9306 194.67 45.8295C174.867 26.0257 148.007 14.9 120 14.9C91.9931 14.9 65.1334 26.0257 45.3295 45.8295C27.2285 63.9306 16.3774 87.9264 14.6452 113.305C14.3744 117.272 11.1764 120.5 7.2 120.5Z" fill="url(#paint0_radial_408_2639)"/><circle cx="202" cy="71.5" r="4" fill="#DEE4FF"/><circle cx="170" cy="37.5" r="4" fill="#DEE4FF"/><circle cx="120" cy="23.5" r="4" fill="#DEE4FF"/><circle cx="73" cy="37.5" r="4" fill="#DEE4FF"/><circle cx="38" cy="71.5" r="4" fill="#DEE4FF"/><circle cx="24" cy="113.5" r="4" fill="#DEE4FF"/><circle cx="216" cy="113.5" r="4" fill="#DEE4FF"/><defs><filter id="filter0_d_408_2639" x="203.296" y="61" width="39.4082" height="39.4082" filterUnits="userSpaceOnUse" color-interpolation-filters="sRGB"><feFlood flood-opacity="0" result="BackgroundImageFix"/><feColorMatrix in="SourceAlpha" type="matrix" values="0 0 0 0 0 0 0 0 0 0 0 0 0 0 0 0 0 0 127 0" result="hardAlpha"/><feOffset dy="6.70412"/><feGaussianBlur stdDeviation="3.35206"/><feComposite in2="hardAlpha" operator="out"/><feColorMatrix type="matrix" values="0 0 0 0 0 0 0 0 0 0 0 0 0 0 0 0 0 0 0.1 0"/><feBlend mode="normal" in2="BackgroundImageFix" result="effect1_dropShadow_408_2639"/><feBlend mode="normal" in="SourceGraphic" in2="effect1_dropShadow_408_2639" result="shape"/></filter><radialGradient id="paint0_radial_408_2639" cx="0" cy="0" r="1" gradientUnits="userSpaceOnUse" gradientTransform="translate(231.367 108.414) rotate(178.877) scale(220.186)"><stop stop-color="#0C6AF7"/><stop offset="0.396907" stop-color="#3ECE80"/><stop offset="0.622936" stop-color="#F9CF4A"/><stop offset="1" stop-color="#E76262"/></radialGradient></defs></svg>