<svg width="24" height="24" viewBox="0 0 24 24" fill="none" xmlns="http://www.w3.org/2000/svg">
<path fill-rule="evenodd" clip-rule="evenodd" d="M21.2376 7.56191L20.5899 6.4381C20.0421 5.48718 18.8279 5.15914 17.8757 5.70476V5.70476C17.4224 5.97178 16.8815 6.04753 16.3723 5.91532C15.8632 5.78311 15.4275 5.4538 15.1614 5C14.9902 4.71156 14.8982 4.38302 14.8947 4.04762V4.04762C14.9102 3.50988 14.7073 2.98879 14.3323 2.60305C13.9573 2.21731 13.4422 1.99978 12.9042 2H11.5995C11.0724 1.99999 10.5671 2.21001 10.1953 2.58357C9.82357 2.95713 9.61598 3.46345 9.61852 3.99048V3.99048C9.6029 5.07861 8.71629 5.95249 7.62804 5.95238C7.29264 5.9489 6.9641 5.85691 6.67566 5.68571V5.68571C5.72344 5.14009 4.50926 5.46813 3.96137 6.41905L3.26614 7.56191C2.71891 8.51163 3.04249 9.72505 3.98994 10.2762V10.2762C4.60581 10.6318 4.98519 11.2889 4.98519 12C4.98519 12.7111 4.60581 13.3682 3.98994 13.7238V13.7238C3.04369 14.2712 2.71976 15.4817 3.26614 16.4286V16.4286L3.92328 17.5619C4.17999 18.0251 4.6107 18.3669 5.1201 18.5117C5.62951 18.6565 6.17561 18.5923 6.63756 18.3333V18.3333C7.09169 18.0683 7.63285 17.9957 8.14076 18.1317C8.64867 18.2676 9.08124 18.6008 9.34233 19.0571C9.51352 19.3456 9.60551 19.6741 9.60899 20.0095V20.0095C9.60899 21.1088 10.5002 22 11.5995 22H12.9042C13.9998 22 14.8895 21.1146 14.8947 20.019V20.019C14.8922 19.4904 15.1011 18.9826 15.4749 18.6088C15.8487 18.2349 16.3565 18.026 16.8852 18.0286C17.2198 18.0375 17.547 18.1291 17.8376 18.2952V18.2952C18.7873 18.8425 20.0007 18.5189 20.5519 17.5714V17.5714L21.2376 16.4286C21.503 15.973 21.5758 15.4304 21.44 14.9209C21.3041 14.4115 20.9708 13.9772 20.5138 13.7143V13.7143C20.0567 13.4514 19.7234 13.0171 19.5875 12.5076C19.4517 11.9982 19.5245 11.4556 19.7899 11C19.9625 10.6987 20.2124 10.4488 20.5138 10.2762V10.2762C21.4555 9.72535 21.7784 8.51902 21.2376 7.57143V7.57143V7.56191Z" stroke="white" stroke-width="1.5" stroke-linecap="round" stroke-linejoin="round"/>
<circle cx="12.257" cy="12.0003" r="2.74286" stroke="white" stroke-width="1.5" stroke-linecap="round" stroke-linejoin="round"/>
</svg>
