<svg width="24" height="24" viewBox="0 0 24 24" fill="none" xmlns="http://www.w3.org/2000/svg">
<path d="M16 6C16 3.79088 14.2129 2.00004 12.0085 2.00004V2.00004C10.9469 1.99553 9.92729 2.41496 9.17507 3.16559C8.42285 3.91622 7.99999 4.9362 8 6V6" stroke="white" stroke-width="1.5" stroke-linecap="round" stroke-linejoin="round"/>
<path d="M8.525 10.5H8.475" stroke="white" stroke-width="1.5" stroke-linecap="round" stroke-linejoin="round"/>
<path d="M15.525 10.5H15.475" stroke="white" stroke-width="1.5" stroke-linecap="round" stroke-linejoin="round"/>
<path d="M3.78101 7.75193C3.90612 6.75107 4.75692 6 5.76556 6H18.2344C19.2431 6 20.0939 6.75107 20.219 7.75193L21.719 19.7519C21.8682 20.9456 20.9374 22 19.7344 22H4.26556C3.06257 22 2.1318 20.9456 2.28101 19.7519L3.78101 7.75193Z" stroke="white" stroke-width="1.5"/>
</svg>
