<svg width="24" height="24" viewBox="0 0 24 24" fill="none" xmlns="http://www.w3.org/2000/svg">
<path d="M8.36768 16.7305L12.0019 20.3647L15.6361 16.7305" stroke="white" stroke-width="1.5" stroke-linecap="round" stroke-linejoin="round"/>
<path d="M12.002 12.1877V20.3647" stroke="white" stroke-width="1.5" stroke-linecap="round" stroke-linejoin="round"/>
<path d="M20.0703 17.7207C20.8602 17.1653 21.4525 16.3726 21.7614 15.4577C22.0702 14.5427 22.0795 13.5532 21.7878 12.6327C21.4962 11.7121 20.9188 10.9084 20.1394 10.3383C19.3601 9.76816 18.4193 9.46119 17.4537 9.46194H16.3089C16.0356 8.39699 15.5243 7.40791 14.8135 6.56916C14.1027 5.73041 13.2108 5.06384 12.2051 4.61964C11.1994 4.17544 10.106 3.96518 9.00726 4.0047C7.90852 4.04421 6.83306 4.33246 5.86185 4.84776C4.89063 5.36305 4.04897 6.09196 3.40023 6.9796C2.75148 7.86725 2.31256 8.8905 2.1165 9.97232C1.92044 11.0541 1.97236 12.1664 2.26834 13.2252C2.56432 14.2841 3.09665 15.262 3.82526 16.0853" stroke="white" stroke-width="1.5" stroke-linecap="round" stroke-linejoin="round"/>
</svg>
