<svg width="24" height="24" viewBox="0 0 24 24" fill="none" xmlns="http://www.w3.org/2000/svg">
<path d="M21 15.9435V7.97463C20.9996 7.62527 20.9071 7.28215 20.7315 6.97968C20.556 6.67721 20.3037 6.42604 20 6.25136L13 2.26691C12.696 2.09205 12.3511 2 12 2C11.6489 2 11.304 2.09205 11 2.26691L4 6.25136C3.69626 6.42604 3.44398 6.67721 3.26846 6.97968C3.09294 7.28215 3.00036 7.62527 3 7.97463V15.9435C3.00036 16.2929 3.09294 16.636 3.26846 16.9385C3.44398 17.241 3.69626 17.4921 4 17.6668L11 21.6513C11.304 21.8261 11.6489 21.9182 12 21.9182C12.3511 21.9182 12.696 21.8261 13 21.6513L20 17.6668C20.3037 17.4921 20.556 17.241 20.7315 16.9385C20.9071 16.636 20.9996 16.2929 21 15.9435Z" stroke="white" stroke-width="1.5" stroke-linecap="round" stroke-linejoin="round"/>
<path d="M3.27002 6.93872L12 11.9691L20.73 6.93872" stroke="white" stroke-width="1.5" stroke-linecap="round" stroke-linejoin="round"/>
<path d="M12 22V11.9592" stroke="white" stroke-width="1.5" stroke-linecap="round" stroke-linejoin="round"/>
</svg>
