<svg width="208" height="60" viewBox="0 0 208 60" fill="none" xmlns="http://www.w3.org/2000/svg">
<path d="M30.6628 24.7432C31.3596 24.7432 32.0519 24.9317 32.7487 25.3173C33.4367 25.7029 33.9012 26.2025 34.1291 26.8204C34.3482 26.2156 34.8171 25.7205 35.527 25.3261C36.2369 24.9361 36.9381 24.7432 37.6304 24.7432H43.2878C44.6156 24.7432 45.7462 25.1683 46.684 26.0228C47.6174 26.873 48.0907 27.8896 48.0907 29.086V41.0361H45.1371V29.7082C45.1371 29.0334 44.8961 28.4856 44.414 28.043C43.932 27.6092 43.3273 27.3857 42.5998 27.3857H38.1651C37.4595 27.3857 36.8548 27.6004 36.3508 28.0167C35.8425 28.4374 35.5883 28.9589 35.5883 29.5943V41.0361H32.6479V29.5943C32.6479 28.9501 32.4069 28.4243 31.9205 28.008C31.4384 27.596 30.8249 27.3857 30.0975 27.3857H25.6803C24.9484 27.3857 24.3437 27.6092 23.8485 28.043C23.3533 28.4856 23.1079 29.0334 23.1079 29.7082C23.1079 30.2472 23.0992 31.3691 23.0816 33.0474C23.0597 34.7346 23.0597 36.2815 23.0904 37.6838C23.1123 39.0861 23.1211 40.2079 23.1079 41.0318H20.1719V29.0816C20.1719 27.8896 20.6451 26.8686 21.5829 26.0184C22.5295 25.1639 23.6645 24.7389 24.9879 24.7389H30.6628V24.7432Z" fill="white"/>
<path d="M63.5488 24.761C64.8722 24.761 66.0072 25.1817 66.9406 26.0319C67.8828 26.8733 68.3429 27.8943 68.3429 29.0862V34.415H54.7012V37.3861C54.7012 37.7147 54.8414 37.9864 55.1263 38.188C55.4067 38.3984 55.7705 38.4991 56.1911 38.4991H66.888V41.0364H55.6828C54.596 41.0364 53.6758 40.7165 52.9177 40.068C52.1596 39.4238 51.7739 38.6438 51.7739 37.7147V29.0862C51.7739 27.8943 52.2472 26.8733 53.1762 26.0319C54.1184 25.1817 55.2446 24.761 56.5724 24.761H63.5444H63.5488ZM55.4374 28.0696C54.9466 28.5078 54.7012 29.0556 54.7012 29.7129V31.79H65.4069V29.7129C65.3937 29.038 65.1483 28.4947 64.6707 28.0564C64.193 27.627 63.5839 27.4123 62.852 27.4123H57.2692C56.5373 27.4123 55.9282 27.627 55.4374 28.0696Z" fill="white"/>
<path d="M67.059 41.2074H55.6872C54.561 41.2074 53.5969 40.87 52.8125 40.1995C52.015 39.5203 51.6118 38.6877 51.6118 37.7148V29.0863C51.6118 27.8506 52.1026 26.7813 53.0711 25.9049C54.0395 25.0328 55.2183 24.5902 56.5812 24.5902H63.5532C64.9205 24.5902 66.0993 25.0328 67.059 25.9049C68.0274 26.7726 68.5182 27.8418 68.5182 29.0863V34.5816H54.8765V37.3862C54.8765 37.6622 54.9949 37.8814 55.2315 38.0523C55.4813 38.2407 55.8056 38.3327 56.1999 38.3327H67.0633V41.2118L67.059 41.2074ZM56.5768 24.932C55.2841 24.932 54.2104 25.3352 53.2946 26.159C52.4006 26.9654 51.9449 27.9514 51.9449 29.0863V37.7148C51.9449 38.5913 52.2998 39.3187 53.0273 39.9366C53.7459 40.5545 54.6399 40.8656 55.6829 40.8656H66.7172V38.6701H56.1912C55.7223 38.6701 55.3279 38.5562 55.0211 38.324C54.6925 38.0917 54.526 37.7762 54.526 37.3862V34.2442H68.1677V29.0863C68.1677 27.9294 67.7294 26.9698 66.8223 26.159C65.9284 25.344 64.8241 24.932 63.5445 24.932H56.5724H56.5768ZM65.5778 31.9567H54.5303V29.7086C54.5303 29.0031 54.7977 28.4071 55.3235 27.9382C55.8406 27.4737 56.4936 27.2371 57.2692 27.2371H62.8521C63.6277 27.2371 64.2807 27.4693 64.7846 27.9251C65.2973 28.3896 65.5603 28.9899 65.5778 29.7042V31.9567ZM54.8722 31.6149H65.236V29.7086C65.2228 29.0863 64.9993 28.5824 64.5567 28.1792C64.1185 27.7805 63.5445 27.5789 62.8521 27.5789H57.2692C56.5724 27.5789 56.0115 27.7805 55.5514 28.1924C55.0956 28.5999 54.8722 29.0951 54.8722 29.7086V31.6149Z" fill="white"/>
<path d="M88.6071 18.959V41.0364H76.8716C75.5351 41.0364 74.3913 40.6157 73.4535 39.7656C72.507 38.9242 72.0425 37.9075 72.0425 36.7112V29.0731C72.0425 27.8767 72.507 26.8601 73.4535 26.0099C74.3913 25.1685 75.5351 24.7435 76.8716 24.7435H85.6666V18.959H88.6071ZM77.2792 27.3728C76.6218 27.3728 76.0741 27.605 75.6359 28.0695C75.1933 28.5253 74.9741 29.0774 74.9741 29.7129V36.0977C74.9741 36.755 75.2152 37.294 75.7016 37.741C76.188 38.1748 76.8059 38.3983 77.5465 38.3983H85.6623V27.4166C80.8945 27.3859 78.0986 27.3772 77.2748 27.3772" fill="white"/>
<path d="M88.777 41.2074H76.8707C75.4903 41.2074 74.3027 40.7648 73.3386 39.8927C72.3658 39.0251 71.8706 37.9558 71.8706 36.7113V29.0732C71.8706 27.833 72.3658 26.7594 73.3386 25.8829C74.3071 25.0153 75.4947 24.577 76.8707 24.577H85.4948V18.7882H88.777V41.2074ZM76.8707 24.9145C75.5823 24.9145 74.4692 25.3264 73.5665 26.1371C72.655 26.9566 72.2124 27.9206 72.2124 29.0732V36.7113C72.2124 37.8682 72.655 38.8235 73.5665 39.6386C74.4648 40.4536 75.5779 40.8656 76.8707 40.8656H88.4352V19.13H85.8366V24.9145H76.8707ZM85.8366 38.5649H77.5499C76.7699 38.5649 76.1125 38.3283 75.5911 37.8682C75.0696 37.3949 74.8067 36.7989 74.8067 36.0978V29.7129C74.8067 29.0337 75.0433 28.4377 75.5166 27.9513C75.9855 27.4561 76.5771 27.202 77.2826 27.202C78.2204 27.202 81.2484 27.2151 85.6744 27.2414H85.8453V38.5649H85.8366ZM77.2782 27.5438C76.6647 27.5438 76.1695 27.7541 75.762 28.188C75.3544 28.613 75.1485 29.1257 75.1485 29.7129V36.0978C75.1485 36.7069 75.3676 37.2021 75.8189 37.614C76.2747 38.0172 76.8575 38.2231 77.5499 38.2231H85.4992V27.5788C81.1652 27.5525 78.2072 27.5394 77.2782 27.5394" fill="white"/>
<path d="M95.7637 18.959H92.8496V21.6102H95.7637V18.959Z" fill="#93DAF8"/>
<path d="M95.9352 21.7768H92.6836V18.7882H95.9352V21.7768ZM93.021 21.435H95.5934V19.13H93.021V21.4394V21.435Z" fill="#93DAF8"/>
<path d="M95.7637 24.7427H92.8496V41.0356H95.7637V24.7427Z" fill="white"/>
<path d="M95.9352 41.2066H92.6836V24.5719H95.9352V41.2066ZM93.021 40.8648H95.5934V24.9137H93.021V40.8692V40.8648Z" fill="white"/>
<path d="M102.794 24.761L110.002 38.0828L117.211 24.761H120.55L111.755 41.0364H108.254L99.4546 24.761H102.794Z" fill="#25AAE1"/>
<path d="M111.858 41.2074H108.15L99.167 24.5902H102.896L102.944 24.6779L110 37.7236L117.108 24.5902H120.832L111.858 41.2074ZM108.356 40.8656H111.656L120.263 24.9277H117.309L110 38.4379L102.69 24.9277H99.7367L108.352 40.8656H108.356Z" fill="#25AAE1"/>
<path d="M127.801 41.0356C126.456 41.0356 125.317 40.6149 124.379 39.7648C123.437 38.9234 122.968 37.9068 122.968 36.7104V29.0723C122.968 27.876 123.437 26.8593 124.379 26.0092C125.317 25.1678 126.456 24.7427 127.801 24.7427H139.532V41.0356H127.801ZM136.592 27.4071H128.472C127.731 27.4071 127.113 27.6218 126.627 28.0644C126.136 28.5026 125.904 29.0504 125.904 29.7077V36.0925C125.904 36.7499 126.14 37.2889 126.627 37.7358C127.113 38.1697 127.731 38.3932 128.472 38.3932H136.592V27.4115V27.4071Z" fill="#25AAE1"/>
<path d="M139.704 41.2071H127.806C126.421 41.2071 125.234 40.7645 124.27 39.8924C123.297 39.0204 122.802 37.9511 122.802 36.711V29.0728C122.802 27.8371 123.297 26.7634 124.27 25.8826C125.238 25.0149 126.43 24.5767 127.806 24.5767H139.704V41.2114V41.2071ZM127.806 24.9141C126.513 24.9141 125.4 25.3261 124.498 26.1368C123.586 26.9606 123.144 27.9203 123.144 29.0728V36.711C123.144 37.8635 123.586 38.8232 124.498 39.6382C125.396 40.4533 126.509 40.8652 127.806 40.8652H139.366V24.9141H127.806ZM136.768 38.5646H128.481C127.701 38.5646 127.044 38.328 126.522 37.8678C125.996 37.3902 125.742 36.8117 125.742 36.0974V29.7126C125.742 29.0027 126.005 28.4067 126.522 27.9422C127.031 27.4777 127.688 27.2411 128.481 27.2411H136.768V38.5646ZM128.481 27.5829C127.78 27.5829 127.197 27.7889 126.75 28.1964C126.299 28.5996 126.08 29.0947 126.08 29.7126V36.0974C126.08 36.7109 126.299 37.2061 126.75 37.6137C127.206 38.0212 127.784 38.2272 128.481 38.2272H136.43V27.5829H128.481Z" fill="#25AAE1"/>
<path d="M146.693 18.959H143.775V41.0364H146.693V18.959Z" fill="#25AAE1"/>
<path d="M146.865 41.2074H143.605V18.7882H146.865V41.2074ZM143.947 40.8656H146.528V19.13H143.947V40.8699V40.8656Z" fill="#25AAE1"/>
<path d="M167.57 36.7104C167.57 37.9068 167.106 38.9234 166.168 39.7648C165.23 40.6149 164.1 41.0356 162.776 41.0356H155.554C154.231 41.0356 153.096 40.6149 152.158 39.7648C151.22 38.9234 150.756 37.9068 150.756 36.7104V24.7427H153.696V36.0969C153.696 36.763 153.937 37.3108 154.428 37.7446C154.915 38.1741 155.519 38.3932 156.247 38.3932H162.066C162.798 38.3932 163.407 38.1741 163.894 37.7446C164.376 37.3108 164.617 36.763 164.617 36.0969V24.7427H167.57V36.7104Z" fill="#25AAE1"/>
<path d="M162.776 41.2066H155.554C154.187 41.2066 153.008 40.764 152.044 39.892C151.075 39.0199 150.584 37.9507 150.584 36.7105V24.5719H153.862V36.0926C153.862 36.7149 154.081 37.2101 154.537 37.6132C154.993 38.0164 155.567 38.218 156.242 38.218H162.061C162.745 38.218 163.323 38.012 163.779 37.6132C164.226 37.2101 164.445 36.7105 164.445 36.0926V24.5719H167.741V36.7105C167.741 37.9507 167.25 39.0243 166.281 39.892C165.322 40.764 164.143 41.2066 162.776 41.2066ZM150.922 24.9137V36.7105C150.922 37.863 151.365 38.8227 152.272 39.6378C153.174 40.4529 154.279 40.8648 155.554 40.8648H162.776C164.055 40.8648 165.155 40.4529 166.054 39.6378C166.961 38.8227 167.399 37.8674 167.399 36.7105V24.9137H164.783V36.097C164.783 36.8069 164.52 37.4073 164.003 37.8718C163.481 38.3319 162.828 38.5642 162.061 38.5642H156.242C155.479 38.5642 154.826 38.3319 154.309 37.8718C153.788 37.4073 153.521 36.8069 153.521 36.097V24.9137H150.922Z" fill="#25AAE1"/>
<path d="M183.033 24.761C184.361 24.761 185.487 25.1817 186.429 26.0319C187.363 26.8733 187.832 27.8943 187.832 29.0862V34.415H174.181V37.3861C174.181 37.7147 174.326 37.9864 174.611 38.188C174.9 38.3984 175.255 38.4991 175.684 38.4991H186.372V41.0364H175.172C174.089 41.0364 173.169 40.7165 172.411 40.068C171.644 39.4238 171.271 38.6438 171.271 37.7147V29.0862C171.271 27.8943 171.736 26.8733 172.674 26.0319C173.607 25.1817 174.738 24.761 176.061 24.761H183.033ZM174.922 28.0696C174.427 28.5078 174.181 29.0556 174.181 29.7129V31.79H184.896V29.7129C184.883 29.038 184.637 28.4947 184.155 28.0564C183.673 27.627 183.073 27.4123 182.341 27.4123H176.758C176.026 27.4123 175.413 27.627 174.922 28.0696Z" fill="#25AAE1"/>
<path d="M186.541 41.2074H175.169C174.047 41.2074 173.083 40.87 172.299 40.1995C171.501 39.529 171.098 38.6921 171.098 37.7148V29.0863C171.098 27.8462 171.589 26.7769 172.557 25.9049C173.517 25.0328 174.696 24.5902 176.059 24.5902H183.031C184.394 24.5902 185.577 25.0328 186.541 25.9049C187.509 26.7813 188 27.8506 188 29.0863V34.5816H174.35V37.3862C174.35 37.6622 174.468 37.877 174.705 38.0523C174.963 38.2407 175.283 38.3327 175.682 38.3327H186.537V41.2118L186.541 41.2074ZM176.063 24.932C174.784 24.932 173.684 25.344 172.79 26.159C171.896 26.961 171.444 27.947 171.444 29.0863V37.7148C171.444 38.6 171.799 39.3275 172.522 39.9366C173.245 40.5545 174.135 40.8656 175.174 40.8656H186.203V38.6701H175.686C175.213 38.6701 174.827 38.5562 174.512 38.3283C174.188 38.0961 174.012 37.7674 174.012 37.3862V34.2442H187.663V29.0863C187.663 27.9514 187.207 26.9654 186.313 26.159C185.397 25.3352 184.324 24.932 183.031 24.932H176.059H176.063ZM185.069 31.9567H174.012V29.7086C174.012 29.0031 174.28 28.4071 174.81 27.9382C175.327 27.4737 175.98 27.2371 176.76 27.2371H182.343C183.114 27.2371 183.763 27.4693 184.271 27.9251C184.788 28.3896 185.055 28.9899 185.069 29.7042V31.9567ZM174.354 31.6149H184.727V29.7086C184.714 29.0863 184.49 28.5868 184.043 28.1792C183.592 27.7761 183.04 27.5789 182.343 27.5789H176.76C176.068 27.5789 175.489 27.7848 175.038 28.1924C174.578 28.5999 174.354 29.0951 174.354 29.7086V31.6149Z" fill="#25AAE1"/>
</svg>
